<svg xmlns="http://www.w3.org/2000/svg" viewBox="0 0 30 30" height="24px">
<path d="M15,3C8.383,3,3,8.383,3,15s5.383,12,12,12s12-5.383,12-12S21.617,3,15,3z M15,24.93c-0.714,0-1.644-1.423-2.278-3.837
	C13.464,21.033,14.227,21,15,21s1.536,0.033,2.278,0.093C16.644,23.507,15.714,24.93,15,24.93z M15,19
	c-0.92,0-1.819,0.041-2.691,0.118C12.16,18.17,12.058,17.126,12.019,16h5.963c-0.039,1.126-0.142,2.17-0.291,3.118
	C16.819,19.041,15.92,19,15,19z M15,5.07c0.714,0,1.644,1.423,2.278,3.837C16.536,8.967,15.773,9,15,9s-1.536-0.033-2.278-0.093
	C13.356,6.494,14.286,5.07,15,5.07z M15,11c0.92,0,1.819-0.041,2.69-0.118c0.149,0.948,0.252,1.992,0.291,3.118h-5.963
	c0.039-1.126,0.142-2.17,0.291-3.118C13.181,10.959,14.08,11,15,11z M10.018,14H5.051c0.158-1.588,0.697-3.063,1.513-4.346
	c1.113,0.421,2.382,0.748,3.757,0.974C10.156,11.712,10.056,12.851,10.018,14z M10.018,16c0.038,1.149,0.138,2.288,0.303,3.372
	c-1.375,0.227-2.644,0.553-3.757,0.974C5.748,19.063,5.209,17.588,5.051,16H10.018z M19.982,16h4.967
	c-0.158,1.588-0.697,3.063-1.513,4.346c-1.113-0.421-2.382-0.748-3.757-0.974C19.844,18.288,19.944,17.149,19.982,16z M19.982,14
	c-0.038-1.149-0.138-2.288-0.303-3.372c1.375-0.227,2.644-0.553,3.757-0.974c0.815,1.283,1.354,2.758,1.513,4.346H19.982z
	 M22.122,7.992c-0.855,0.278-1.807,0.503-2.83,0.669C19,7.466,18.614,6.396,18.144,5.514C19.664,6.019,21.023,6.875,22.122,7.992z
	 M11.856,5.514C11.386,6.396,11,7.466,10.708,8.661C9.685,8.495,8.733,8.27,7.878,7.992C8.977,6.875,10.336,6.019,11.856,5.514z
	 M7.878,22.008c0.855-0.278,1.807-0.503,2.83-0.669c0.292,1.195,0.678,2.265,1.148,3.147C10.336,23.981,8.977,23.125,7.878,22.008z
	 M18.144,24.486c0.47-0.883,0.856-1.952,1.148-3.147c1.022,0.166,1.974,0.391,2.83,0.669C21.023,23.125,19.664,23.981,18.144,24.486
	z"/>
</svg>
