<svg xmlns="http://www.w3.org/2000/svg" height="30px" viewBox="0 0 30 30">
	<path d="M23,11h-5c-0.553,0-1,0.448-1,1s0.447,1,1,1h5c0.553,0,1-0.448,1-1S23.553,11,23,11z"/>
	<path d="M23,15h-5c-0.553,0-1,0.448-1,1s0.447,1,1,1h5c0.553,0,1-0.448,1-1S23.553,15,23,15z"/>
	<path d="M24,5h-5V4c0-0.552-0.447-1-1-1h-6c-0.552,0-1,0.448-1,1v1H6C3.794,5,2,6.794,2,9v12c0,2.206,1.794,4,4,4h18
		c2.206,0,4-1.794,4-4V9C28,6.794,26.206,5,24,5z M13,5h4v1h-4V5z M26,21c0,1.103-0.897,2-2,2H6c-1.103,0-2-0.897-2-2V9
		c0-1.103,0.897-2,2-2h5c0,0.552,0.448,1,1,1h6c0.553,0,1-0.448,1-1h5c1.103,0,2,0.897,2,2V21z"/>
	<path d="M14,13.333V12.5c0-1.93-1.57-3.5-3.5-3.5S7,10.57,7,12.5v0.833c0,0.674,0.201,1.299,0.533,1.834
		C6.717,16.013,6,17.472,6,20c0,0.552,0.448,1,1,1h7c0.552,0,1-0.448,1-1c0-2.528-0.717-3.987-1.533-4.832
		C13.799,14.633,14,14.008,14,13.333z M9,12.5c0-0.827,0.673-1.5,1.5-1.5s1.5,0.673,1.5,1.5v0.833c0,0.827-0.673,1.5-1.5,1.5
		S9,14.161,9,13.333V12.5z M8.048,19c0.119-1.154,0.465-1.985,1-2.491c0.443,0.204,0.932,0.325,1.452,0.325s1.008-0.121,1.452-0.325
		c0.536,0.506,0.882,1.337,1,2.491H8.048z"/>
</svg>
