<svg xmlns="http://www.w3.org/2000/svg" viewBox="0 0 30 30" class="h-8">
	<path d="M15,27C8.383,27,3,21.617,3,15S8.383,3,15,3s12,5.383,12,12S21.617,27,15,27z M15,5C9.486,5,5,9.486,5,15s4.486,10,10,10
		s10-4.486,10-10S20.514,5,15,5z"/>
	<path d="M19,15.998h-8c-0.552,0-1-0.447-1-1s0.448-1,1-1h8c0.552,0,1,0.447,1,1S19.552,15.998,19,15.998z"/>
	<path d="M19,11.998h-8c-0.552,0-1-0.447-1-1s0.448-1,1-1h8c0.552,0,1,0.447,1,1S19.552,11.998,19,11.998z"/>
	<path d="M19,19.998h-8c-0.552,0-1-0.447-1-1s0.448-1,1-1h8c0.552,0,1,0.447,1,1S19.552,19.998,19,19.998z"/>
</svg>
