<svg xmlns="http://www.w3.org/2000/svg" viewBox="0 0 30 30" height="30px">
	<path d="M22.7,27c-0.157,0-0.315-0.037-0.461-0.113L15,23.127l-7.239,3.76c-0.353,0.183-0.777,0.141-1.085-0.106
		c-0.309-0.247-0.443-0.652-0.344-1.035l2.051-7.827l-5.069-4.788c-0.277-0.262-0.382-0.66-0.269-1.024
		c0.113-0.365,0.425-0.633,0.802-0.691l6.981-1.082l3.271-6.77c0.334-0.691,1.467-0.691,1.801,0l3.271,6.77l6.981,1.082
		c0.377,0.059,0.688,0.327,0.802,0.691c0.113,0.364,0.009,0.762-0.269,1.024l-5.069,4.788l2.051,7.827
		c0.1,0.382-0.035,0.788-0.344,1.035C23.144,26.926,22.923,27,22.7,27z M15,21c0.158,0,0.316,0.038,0.461,0.113l5.701,2.961
		l-1.63-6.221c-0.092-0.354,0.016-0.729,0.281-0.98l4.016-3.793l-5.482-0.849c-0.324-0.05-0.604-0.257-0.747-0.553L15,6.298
		l-2.6,5.379c-0.143,0.296-0.423,0.503-0.747,0.553L6.171,13.08l4.016,3.793c0.266,0.251,0.373,0.627,0.281,0.98l-1.63,6.221
		l5.701-2.961C14.684,21.038,14.842,21,15,21z"/>
</svg>
