<svg xmlns="http://www.w3.org/2000/svg" height="30px" viewBox="0 0 30 30">
	<path d="M27,4H3C2.448,4,2,4.448,2,5v20c0,0.552,0.448,1,1,1h24c0.552,0,1-0.448,1-1V5C28,4.448,27.552,4,27,4z M26,6v15H4V6H26z
		 M4,24v-1h22v1H4z"/>
	<path d="M13,19c-0.144,0-0.289-0.031-0.424-0.094C12.225,18.741,12,18.388,12,18V9c0-0.388,0.225-0.741,0.576-0.906
		c0.35-0.165,0.766-0.111,1.064,0.138l5.4,4.5c0.228,0.19,0.36,0.471,0.36,0.768s-0.132,0.578-0.36,0.768l-5.4,4.5
		C13.457,18.921,13.229,19,13,19z M14,11.135v4.729l2.838-2.365L14,11.135z"/>
</svg>
