<svg width="24" height="24" viewBox="0 0 24 24" fill="none" xmlns="http://www.w3.org/2000/svg" style="{{ include.style }} " class="{{ include.class }}">
    <g clip-path="url(#clip0_2012_137)">
        <path d="M20.25 9.40385V6C20.25 5.54097 20.092 5.07458 19.8107 4.75C19.5294 4.42542 19.1478 4.25 18.75 4.25H13.5H8.25V2.48077C8.25 2.02174 8.09196 1.58151 7.81066 1.25693C7.52936 0.932348 7.14782 0.75 6.75 0.75H2.25C1.85218 0.75 1.47064 0.932348 1.18934 1.25693C0.908035 1.58151 0.75 2.02174 0.75 2.48077V21.2885C0.755644 21.7598 0.908176 22.2129 1.17968 22.5651C1.45119 22.9173 1.82352 23.1448 2.22854 23.2062C2.63355 23.2676 3.04418 23.1586 3.38527 22.8992C3.72636 22.6399 3.97511 22.2475 4.086 21.7938L6.437 10.6512C6.52779 10.2911 6.71749 9.97472 6.97756 9.74977C7.23762 9.52482 7.55397 9.40342 7.879 9.40385H21.75C21.9799 9.40375 22.2068 9.46466 22.4131 9.58184C22.6194 9.69903 22.7995 9.86937 22.9397 10.0797C23.0798 10.29 23.1762 10.5347 23.2213 10.7949C23.2665 11.055 23.2592 11.3236 23.2 11.58L21 21.9646C20.9149 22.3333 20.7266 22.6593 20.4644 22.8917C20.2021 23.1242 19.8807 23.2501 19.55 23.25H2.447" stroke="currentColor" stroke-width="1.5" stroke-linecap="round" stroke-linejoin="round"/>
    </g>
    <defs>
        <clipPath id="clip0_2012_137">
            <rect width="24" height="24" fill="white"/>
        </clipPath>
    </defs>
</svg>
