<svg width="46" height="46" viewBox="0 0 46 46" fill="none" xmlns="http://www.w3.org/2000/svg" style="{{ include.style }} " class="{{ include.class }}">
<path d="M5.66321 22.8872C5.24329 22.7472 4.87632 22.482 4.61167 22.1272C4.34702 21.7724 4.1974 21.345 4.18292 20.9026C4.16845 20.4602 4.28982 20.024 4.53071 19.6526C4.7716 19.2813 5.12046 18.9926 5.53033 18.8255L41.4696 4.18182L26.8293 40.1222C26.6625 40.5321 26.3741 40.8812 26.0029 41.1223C25.6317 41.3635 25.1956 41.4851 24.7532 41.471C24.3109 41.4568 23.8834 41.3075 23.5284 41.0431C23.1735 40.7787 22.908 40.412 22.7677 39.9922L18.4894 27.1772L5.66321 22.8872Z" stroke="black" stroke-width="3.20443" stroke-linecap="round" stroke-linejoin="round"/>
<path d="M18.4888 27.1628L26.4358 19.2155" stroke="black" stroke-width="3.20443" stroke-linecap="round" stroke-linejoin="round"/>
</svg>
