<svg width="46" height="46" viewBox="0 0 46 46" fill="none" stroke="currentColor" style="{{ include.style }} " class="{{ include.class }}" xmlns="http://www.w3.org/2000/svg">
<path fill-rule="evenodd" clip-rule="evenodd" d="M7.06542 3.24145C7.30324 3.01302 7.63771 2.875 7.99801 2.875H25.6505V11.9153C25.6505 13.0104 26.1039 14.0483 26.8909 14.8042C27.676 15.5583 28.7289 15.9722 29.8151 15.9722H39.2862V41.6875C39.2862 42.4447 38.6442 43.125 37.7693 43.125H7.99801C7.63695 43.125 7.30271 42.987 7.06542 42.7591C7.02038 42.7158 6.92041 42.5806 6.8317 42.333C6.7463 42.0947 6.70837 41.8543 6.70837 41.6875V4.05694C6.70837 3.76259 6.82958 3.46798 7.06542 3.24145ZM7.99801 0H27.3225C28.408 0.000222658 29.4604 0.413797 30.2451 1.16708L40.9213 11.4216C41.7076 12.1773 42.1609 13.2148 42.1612 14.3091V41.6875C42.1612 44.1059 40.1577 46 37.7693 46H7.99801C6.91251 46 5.85944 45.5871 5.07384 44.8326C4.60745 44.3846 4.30804 43.813 4.12523 43.3029C3.93911 42.7835 3.83337 42.2154 3.83337 41.6875V4.05694C3.83337 2.96186 4.28682 1.92393 5.07384 1.16799C5.8589 0.413933 6.91175 0 7.99801 0ZM28.5255 11.9153V3.50171L38.5155 13.0972H29.8151C29.4548 13.0972 29.1203 12.9592 28.8825 12.7308C28.6467 12.5042 28.5255 12.2096 28.5255 11.9153ZM13.8959 34.5C13.102 34.5 12.4584 35.1436 12.4584 35.9375C12.4584 36.7314 13.102 37.375 13.8959 37.375H32.1042C32.8981 37.375 33.5417 36.7314 33.5417 35.9375C33.5417 35.1436 32.8981 34.5 32.1042 34.5H13.8959Z" fill="black"/>
<path fill-rule="evenodd" clip-rule="evenodd" d="M12.4584 27.3125C12.4584 26.5186 13.102 25.875 13.8959 25.875H32.1042C32.8981 25.875 33.5417 26.5186 33.5417 27.3125C33.5417 28.1064 32.8981 28.75 32.1042 28.75H13.8959C13.102 28.75 12.4584 28.1064 12.4584 27.3125Z" fill="black"/>
<path fill-rule="evenodd" clip-rule="evenodd" d="M12.4584 18.6875C12.4584 17.8936 13.102 17.25 13.8959 17.25H23.4792C24.2731 17.25 24.9167 17.8936 24.9167 18.6875C24.9167 19.4814 24.2731 20.125 23.4792 20.125H13.8959C13.102 20.125 12.4584 19.4814 12.4584 18.6875Z" fill="black"/>
</svg>
