<?xml version="1.0" encoding="UTF-8"?>
<svg width="24px" height="24px" viewBox="0 0 24 24" version="1.1" xmlns="http://www.w3.org/2000/svg" xmlns:xlink="http://www.w3.org/1999/xlink">
    <!-- Generator: Sketch 55 (78076) - https://sketchapp.com -->
    <title>dataflows</title>
    <desc>Created with Sketch.</desc>
    <g id="dataflows" stroke="none" stroke-width="1" fill="none" fill-rule="evenodd">
        <g transform="translate(4.000000, 1.000000)" fill="#28292C" fill-rule="nonzero" id="Combined-Shape">
            <path d="M4.58427245,5.5480428 C4.12451684,5.83450653 3.58158496,6 3,6 C1.34314575,6 0,4.65685425 0,3 C0,1.34314575 1.34314575,0 3,0 C4.65685425,0 6,1.34314575 6,3 C6,3.34562505 5.94155263,3.67759899 5.83400253,3.98657718 L11.4157276,8.4519572 C11.8754832,8.16549347 12.418415,8 13,8 C14.6568542,8 16,9.34314575 16,11 C16,12.6568542 14.6568542,14 13,14 C12.418415,14 11.8754832,13.8345065 11.4157276,13.5480428 L5.83400253,18.0134228 C5.94155263,18.322401 6,18.6543749 6,19 C6,20.6568542 4.65685425,22 3,22 C1.34314575,22 0,20.6568542 0,19 C0,17.3431458 1.34314575,16 3,16 C3.58158496,16 4.12451684,16.1654935 4.58427245,16.4519572 L10.1659975,11.9865772 C10.0584474,11.677599 10,11.3456251 10,11 C10,10.6543749 10.0584474,10.322401 10.1659975,10.0134228 L4.58427245,5.5480428 Z"></path>
        </g>
    </g>
</svg>