<svg xmlns="http://www.w3.org/2000/svg" height="30px" viewBox="0 0 30 30">
<path d="M15,3C9.534,3,4,4.546,4,7.5v15.166C4,25.644,9.702,27,15,27s11-1.356,11-4.334V7.5C26,4.546,20.466,3,15,3z M24,17.666
	C24,18.343,20.846,20,15,20c-5.846,0-9-1.657-9-2.334v-2.37C8.128,16.453,11.643,17,15,17s6.872-0.547,9-1.704V17.666z M24,12.666
	C24,13.343,20.846,15,15,15c-5.846,0-9-1.657-9-2.334v-2.469C8.098,11.387,11.561,12,15,12c3.439,0,6.902-0.613,9-1.803V12.666z
	 M15,5c5.583,0,9,1.619,9,2.5S20.583,10,15,10S6,8.381,6,7.5S9.417,5,15,5z M15,25c-5.846,0-9-1.657-9-2.334v-2.37
	C8.128,21.453,11.643,22,15,22s6.872-0.547,9-1.704v2.37C24,23.343,20.846,25,15,25z"/>
</svg>
