<svg xmlns="http://www.w3.org/2000/svg" height="24px" viewBox="0 0 30 30">
<path d="M26.633,13.226l-11-9c-0.368-0.302-0.898-0.302-1.267,0l-11,9c-0.427,0.35-0.49,0.979-0.141,1.407
	c0.35,0.427,0.979,0.49,1.407,0.141L6,13.656V25c0,0.552,0.448,1,1,1h16c0.552,0,1-0.448,1-1V13.656l1.367,1.118
	C25.553,14.926,25.777,15,26,15c0.29,0,0.577-0.125,0.774-0.367C27.124,14.206,27.061,13.576,26.633,13.226z M17,24h-4v-7h4V24z
	 M22,24h-3v-8c0-0.552-0.448-1-1-1h-6c-0.552,0-1,0.448-1,1v8H8V12.02l7-5.728l7,5.728V24z"/>
</svg>
