<svg xmlns="http://www.w3.org/2000/svg" height="30px" viewBox="0 0 30 30">
	<path d="M25,7h-1V4c0-0.553-0.447-1-1-1s-1,0.447-1,1v3h-1c-0.553,0-1,0.447-1,1v4c0,0.553,0.447,1,1,1h1v13c0,0.553,0.447,1,1,1
		s1-0.447,1-1V13h1c0.553,0,1-0.447,1-1V8C26,7.447,25.553,7,25,7z M24,11h-2V9h2V11z"/>
	<path d="M9,17H8V4c0-0.553-0.447-1-1-1S6,3.447,6,4v13H5c-0.553,0-1,0.447-1,1v4c0,0.553,0.447,1,1,1h1v3c0,0.553,0.447,1,1,1
		s1-0.447,1-1v-3h1c0.553,0,1-0.447,1-1v-4C10,17.447,9.553,17,9,17z M8,21H6v-2h2V21z"/>
	<path d="M17,12h-1V4c0-0.553-0.447-1-1-1s-1,0.447-1,1v8h-1c-0.553,0-1,0.447-1,1v4c0,0.553,0.447,1,1,1h1v8c0,0.553,0.447,1,1,1
		s1-0.447,1-1v-8h1c0.553,0,1-0.447,1-1v-4C18,12.447,17.553,12,17,12z M16,16h-2v-2h2V16z"/>
</svg>
