<svg xmlns="http://www.w3.org/2000/svg"  viewBox="0 0 30 30" height="30px">
<g>
	<path d="M4,27c-0.262,0-0.517-0.103-0.707-0.293c-0.257-0.257-0.354-0.633-0.254-0.982l1.428-4.998C3.506,18.966,3,16.996,3,15
		C3,8.383,8.383,3,15,3s12,5.383,12,12s-5.383,12-12,12c-1.996,0-3.966-0.506-5.728-1.466l-4.998,1.428
		C4.184,26.987,4.092,27,4,27z M9.402,23.457c0.178,0,0.354,0.047,0.51,0.14C11.459,24.515,13.218,25,15,25
		c5.514,0,10-4.486,10-10S20.514,5,15,5S5,9.486,5,15c0,1.782,0.485,3.541,1.403,5.088c0.141,0.236,0.177,0.521,0.102,0.785
		l-1.049,3.671l3.671-1.049C9.217,23.469,9.31,23.457,9.402,23.457z"/>
	<path d="M15,18.5c-0.552,0-1-0.448-1-1c0-2.021,1.086-2.913,1.88-3.564C16.579,13.363,17,13.018,17,12c0-1.904-1.666-2-2-2
		c-0.463,0.007-2,0.173-2,2c0,0.552-0.448,1-1,1s-1-0.448-1-1c0-2.935,2.392-4,4-4s4,1.065,4,4c0,1.963-1.07,2.841-1.852,3.482
		C16.432,16.07,16,16.425,16,17.5C16,18.052,15.552,18.5,15,18.5z"/>
	<circle cx="15" cy="21" r="1"/>
</g>
</svg>
