<svg xmlns="http://www.w3.org/2000/svg" viewBox="0 0 256 256"><g id="Icon"><path d="M128,189a43,43,0,1,1,43-43A43,43,0,0,1,128,189Zm0-78a35,35,0,1,0,35,35A35,35,0,0,0,128,111Z"/><path d="M118.51,166a3.9,3.9,0,0,1-1.9-.49,4,4,0,0,1-2.1-3.51V129.13a4,4,0,0,1,6.18-3.35L146,142.21a4,4,0,0,1,0,6.71l-25.3,16.43A4,4,0,0,1,118.51,166Zm4-29.5v18.13l14-9.06Z"/><path d="M223,45H33a4,4,0,0,0-4,4V68a4,4,0,0,0,4,4H223a4,4,0,0,0,4-4V49A4,4,0,0,0,223,45ZM116.74,53h30.47l-11,11H105.74ZM94.42,64H63.77L75,53h30.47Zm64.1-11H189L178,64H147.52ZM37,53H63.54L52.36,64H37ZM219,64H189.3l11-11H219Z"/><path d="M223,211H103v-8H219V90H37V203H61v8H33a4,4,0,0,1-4-4V86a4,4,0,0,1,4-4H223a4,4,0,0,1,4,4V207A4,4,0,0,1,223,211Z"/></g></svg>