<svg id="Icon" xmlns="http://www.w3.org/2000/svg" viewBox="0 0 256 256"><path d="M220,172a4,4,0,0,1-2.1-.6l-33-20.44H99a4,4,0,0,1-4-4l-.1-98a4,4,0,0,1,4-4H239a4,4,0,0,1,4,4v98a4,4,0,0,1-4,4H224v17a4,4,0,0,1-4,4ZM103,143h83a4.06,4.06,0,0,1,2.11.6L216,160.86V147a4,4,0,0,1,4-4h15V53H102.9Z"/><path d="M32,211a4,4,0,0,1-4-4V194H17a4,4,0,0,1-4-4V110a4,4,0,0,1,4-4H87v8H21v72H32a4,4,0,0,1,4,4v9.86l21.67-13.27a4,4,0,0,1,2.09-.59H127V157h8v33a4,4,0,0,1-4,4H60.89l-26.8,16.41A4,4,0,0,1,32,211Z"/><path d="M69.69,149.4a10,10,0,0,1,3.69-3c1.79-1,3.42-2,3.42-3.89s-1-3.12-3.53-3.12c-3.32,0-4.09,1.48-4,4.5H59.77c-.05-8.14,4.6-12.18,13.91-12.18,8,0,13.31,3.53,13.31,9.62,0,3.38-1.59,6.35-5.27,8.75a23,23,0,0,0-3.53,2.61c-.77.82-.82,1.64-.82,3.17h-9C68.36,152.07,68.62,151,69.69,149.4Zm-2,9.47H78.08V169H67.65Z"/><rect x="114" y="67" width="63" height="8"/><rect x="114" y="86" width="99" height="8"/><rect x="114" y="99" width="99" height="8"/><rect x="114" y="114" width="99" height="8"/></svg>