<svg id="Icon" xmlns="http://www.w3.org/2000/svg" viewBox="0 0 256 256"><path d="M214,130v73H172V149a4,4,0,0,0-4-4H117a4,4,0,0,0-4,4v54H84v8h37V153h43v58h54a4,4,0,0,0,4-4V130Z"/><path d="M241.56,116.93,209,89.8V55a4,4,0,0,0-4-4H183a4,4,0,0,0-4,4v9.81L145.53,36.93a4,4,0,0,0-5.13,0l-96,80A4,4,0,0,0,47,124H85v-8H58L143,45.21,228,116H121v8H239a4,4,0,0,0,2.56-7.07ZM187,59h14V83.14L187,71.48Z"/><path d="M99.34,166.32,64.89,130.24A4,4,0,0,0,58,133v14H17a4,4,0,0,0-4,4v37a4,4,0,0,0,4,4H58v14a4,4,0,0,0,6.92,2.73l34.45-36.92A4,4,0,0,0,99.34,166.32ZM66,195.85V184H21V155H66V143l24.94,26.13Z"/></svg>