<svg id="Icon" xmlns="http://www.w3.org/2000/svg" viewBox="0 0 256 256"><path d="M168,189a40.36,40.36,0,0,1,0-80.71,4,4,0,0,1,4,4v32.35h32.36a4,4,0,0,1,4,4A40.4,40.4,0,0,1,168,189Zm-4-72.47a32.36,32.36,0,1,0,36.11,36.11H168a4,4,0,0,1-4-4Z"/><path d="M217,136.12H184.88a4,4,0,0,1-4-4V100a4,4,0,0,1,4-4A36.16,36.16,0,0,1,221,132.12,4,4,0,0,1,217,136.12Zm-28.12-8h23.84a28.19,28.19,0,0,0-23.84-23.84Z"/><rect x="87" y="132" width="8" height="50"/><rect x="71" y="103" width="8" height="79"/><rect x="103" y="147" width="8" height="35"/><path d="M239,75H217V64a4,4,0,0,0-4-4l-13,0V49a4,4,0,0,0-4-4L17.13,44.68h0a4,4,0,0,0-4,4L13,178a4,4,0,0,0,4,4H30v10a4,4,0,0,0,4,4H47v11a4,4,0,0,0,4,4H77.86v-8H55V83H235V203H121v8H239a4,4,0,0,0,4-4V79A4,4,0,0,0,239,75ZM34.13,59.68a4,4,0,0,0-4,4L30,174H21l.12-121.31L192,53v7L34.13,59.68ZM51,75a4,4,0,0,0-4,4V188H38l.12-120.31L209,68v7Z"/></svg>