<?xml version="1.0" encoding="UTF-8"?>
<svg id="Icons_contour" xmlns="http://www.w3.org/2000/svg" viewBox="0 0 256 256">
    <defs>
        <style>
            .cls-1{fill:#ffffff;}
        </style>
    </defs>
    <circle class="cls-1" cx="215.92" cy="67.33" r="4.55"/>
    <circle class="cls-1" cx="201.92" cy="67.33" r="4.55"/>
    <circle class="cls-1" cx="187.8" cy="67.33" r="4.55"/>
    <path class="cls-1" d="m233.94,51.88H22.06c-2.21,0-4,1.79-4,4v144.25c0,2.21,1.79,4,4,4h132.98v-8H26.06v-113.13h36.19v42c0,2.21,1.79,4,4,4h41.29c.02,2.69.9,5.4,2.67,7.66l21.87,32.25c.06.09.13.18.19.26,6,7.46,14.93,11.73,24.5,11.73h24.1c7.18,0,13.93-2.8,19-7.88,5.08-5.09,7.86-11.84,7.84-19.05l-.22-27.84c0-11.08-6.03-18.03-15.78-18.24-.16-3.72-1.99-7.46-4.85-9.87-2.62-2.19-5.86-3.13-9.18-2.6h0c-1.76.24-3.39.84-4.84,1.7-.67-1.37-1.55-2.61-2.59-3.65v-10.47h59.68v113.13h-26.27v8h30.27c2.21,0,4-1.79,4-4V55.88c0-2.21-1.79-4-4-4Zm-123.58,69.12h-40.1v-45.74h92v14.86c-.63,0-1.28.05-1.92.15-.07,0-.14.02-.21.04h-.02s-.05.01-.07.01c-2.12.36-4.06,1.21-5.69,2.44-2.02-2.63-5.03-4.49-8.5-4.99h-.03c-3.84-.32-7.38.8-9.96,3.16-2.63,2.41-4.07,5.92-4.07,9.89v22.65l-1.96-2.42c-4.32-5.38-12.23-6.23-17.65-1.88-.68.56-1.29,1.17-1.82,1.83Zm46.69-21.74v.18c0-.06,0-.12-.02-.18h.02Zm17.33,25.74v-16.54c0-2.56,1.91-4.77,4.44-5.13h0c1.07-.18,2.03.08,2.91.82,1.2,1.01,2.01,2.74,2,4.31v22.17h8v-14.74c5.15.2,7.77,3.64,7.77,10.27l.22,27.86c0,5.04-1.94,9.78-5.5,13.35-3.56,3.57-8.3,5.53-13.34,5.53h-24.1c-7.08,0-13.69-3.14-18.16-8.62l-21.86-32.24c-.07-.09-.13-.19-.21-.27-1.57-1.94-1.27-4.81.66-6.38,1.96-1.57,4.83-1.27,6.39.68l9.04,11.2c.76.94,1.94,1.49,3.15,1.49,2.21,0,4-1.8,4-4v-33.94c0-1.72.51-3.1,1.48-3.99.89-.81,2.15-1.2,3.68-1.1,2.11.41,3.75,2.12,4.1,4.22v21.05h8v-17.92c.11-2.46,1.97-4.55,4.42-4.9h0c1.09-.19,2.01.02,2.81.66,1.19.94,1.99,2.69,2.1,4.58v21.58h8Zm55.56-50h-59.68v-3.74c0-2.21-1.79-4-4-4h-100c-2.21,0-4,1.79-4,4v3.74H26.06v-15.12h203.87v15.12Z"/>
    <path class="cls-1" d="m145.85,87.77h-.03s.02-.01.03,0Z"/>
    <path class="cls-1" d="m149.04,102.7v.61h0c0-.2,0-.41,0-.61Z"/>
    <path class="cls-1" d="m157.04,99.26v.18c0-.06,0-.12-.02-.18h.02Z"/>
    <path class="cls-1" d="m160.33,90.26h0c-.07.02-.14.03-.21.05.07-.02.14-.04.21-.05Z"/>
    <rect class="cls-1" x="91.63" y="157.62" width="10" height="8"/>
    <rect class="cls-1" x="67.63" y="157.62" width="12" height="8"/>
    <path class="cls-1" d="m55.63,165.62h-10c-2.21,0-4-1.79-4-4v-10h8v6h6v8Z"/>
    <rect class="cls-1" x="41.63" y="129.12" width="8" height="11.25"/>
    <path class="cls-1" d="m49.63,117.88h-8v-10c0-2.21,1.79-4,4-4h9.25v8h-5.25v6Z"/>
    <path class="cls-1" d="m157.04,99.26v.18c0-.06,0-.12-.02-.18h.02Z"/>
</svg>