<?xml version="1.0" encoding="UTF-8"?>
<svg id="Icons_vector" xmlns="http://www.w3.org/2000/svg" viewBox="0 0 256 256">
    <defs>
        <style>
            .cls-1{fill:#ffffff;}
        </style>
    </defs>
    <path class="cls-1" d="m235.72,176h-8.72V58c0-2.21-1.79-4-4-4H33c-2.21,0-4,1.79-4,4v118h-7.71c-4.57,0-8.29,3.6-8.29,8.03,0,9.91,8.47,17.97,18.88,17.97h191.23c10.97,0,19.89-8.49,19.89-18.92,0-3.9-3.27-7.08-7.28-7.08ZM37,62h182v114H37V62Zm186.11,132H31.88c-5.97,0-10.84-4.44-10.88-9.91.04-.04.13-.09.29-.09h213.67c-.51,5.59-5.63,10-11.85,10Z"/>
    <path class="cls-1" d="m150.01,165c-22.25,0-40.36-18.1-40.36-40.36s18.1-40.36,40.36-40.36c2.21,0,4,1.79,4,4v32.36h32.36c2.21,0,4,1.79,4,4,0,22.25-18.1,40.36-40.36,40.36Zm-4-72.47c-15.96,1.98-28.36,15.62-28.36,32.11,0,17.84,14.51,32.36,32.36,32.36,16.49,0,30.13-12.4,32.11-28.36h-32.11c-2.21,0-4-1.79-4-4v-32.11Z"/>
    <path class="cls-1" d="m199,112.12h-32.12c-2.21,0-4-1.79-4-4v-32.12c0-2.21,1.79-4,4-4,19.91,0,36.12,16.2,36.12,36.12,0,2.21-1.79,4-4,4Zm-28.12-8h23.83c-1.76-12.31-11.52-22.07-23.83-23.83v23.83Z"/>
    <rect class="cls-1" x="69" y="108" width="8" height="50"/>
    <rect class="cls-1" x="53" y="79" width="8" height="79"/>
    <rect class="cls-1" x="85" y="123" width="8" height="35"/>
</svg>