<?xml version="1.0" encoding="UTF-8"?>
<svg id="Icons_contour" xmlns="http://www.w3.org/2000/svg" viewBox="0 0 256 256">
    <defs>
        <style>
            .cls-1{fill:none;stroke:#ffffff;stroke-linejoin:round;stroke-width:8px;}
            .cls-2{fill:#ffffff;}
        </style>
    </defs>
    <rect class="cls-1" x="22.06" y="102.62" width="125.2" height="97.38" rx="3.23" ry="3.23"/>
    <polygon class="cls-2" points="108.65 142.34 108.72 142.34 114.66 152.44 121.78 152.44 114.1 140.67 122 131.44 114.55 131.44 108.72 139.05 108.65 139.05 108.65 124.44 102.37 124.44 102.37 152.44 108.65 152.44 108.65 142.34"/>
    <path class="cls-2" d="m100.68,177.46v-21h-6.28v2.23h-.08c-1.21-1.93-3.59-2.95-6.17-2.95-4.7,0-8.48,3.05-9.9,7.35-1.53-4.36-5.69-7.31-10.68-7.31s-8.89,2.74-10.53,6.94c-1.52-4.46-5.52-6.98-9.79-6.98-2.19,0-4.31.61-5.98,2.38v-7.58c1.7,1.85,3.86,2.61,6.32,2.61,4.7,0,8.29-3.07,9.64-7.26,1.59,4.26,5.71,7.22,10.42,7.22,4.43,0,8.25-2.69,10.25-7.26h-6.43c-1.02,1.32-2.12,1.97-3.82,1.97-2.57,0-4.58-1.59-4.92-3.97h15.05c.78,5.39,4.82,9.31,10.38,9.31,2.76,0,5.26-1.14,6.17-2.99h.08v2.27h6.28v-21h-6.28v2.23h-.08c-1.21-1.93-3.59-2.95-6.17-2.95-4.89,0-8.77,3.29-10.06,7.86-1.41-4.65-5.5-7.86-10.56-7.86-4.79,0-8.77,3.15-10.32,7.38-1.36-4.41-4.96-7.38-9.63-7.38-2.61,0-4.92.95-6.58,3.03h-.11v-2.31h-5.9v46.02h6.02v-2.23h.08c.95,1.78,3.48,2.95,6.02,2.95,4.94,0,8.51-2.84,9.92-7.07,1.61,4.2,5.65,6.99,10.56,6.99s9.09-2.86,10.65-7.27c1.38,4.35,5.07,7.34,9.93,7.34,2.76,0,5.26-1.14,6.17-2.99h.08v2.27h6.28Zm-11.62-40.88c2.95,0,5.33,2.38,5.33,5.33s-2.31,5.37-5.26,5.37-5.22-2.38-5.22-5.3,2.27-5.41,5.15-5.41Zm-21.53-.57c2.42,0,4.31,1.44,4.81,3.59h-9.53c.49-2.23,2.46-3.59,4.73-3.59Zm-21.31.57c3.03,0,5.3,2.42,5.3,5.37s-2.27,5.33-5.26,5.33-5.26-2.38-5.26-5.33,2.35-5.37,5.22-5.37Zm-.08,35.73c-2.91,0-5.11-2.31-5.11-5.41,0-2.91,2.27-5.3,5.18-5.3s5.18,2.53,5.18,5.33c0,3.03-2.31,5.37-5.26,5.37Zm21.42-.08c-2.84,0-5.03-2.42-5.03-5.3s2.23-5.3,4.99-5.3c2.95,0,5.07,2.5,5.07,5.3s-2.08,5.3-5.03,5.3Zm21.57.08c-2.91,0-5.22-2.38-5.22-5.3s2.27-5.41,5.15-5.41,5.33,2.38,5.33,5.33-2.31,5.37-5.26,5.37Z"/>
    <path class="cls-2" d="m128.05,149.47v8.78c-1.78-1.78-3.75-2.5-6.17-2.5-3.53,0-6.44,1.62-8.28,4.19v-4.19c-2.42,0-4.16.72-5.26,2.95h-.08v-2.23h-5.9v21h6.28v-11.58c0-2.1.95-3.44,3.74-3.75-.59,1.44-.91,3.05-.91,4.77,0,6.36,4.16,11.24,10.52,11.24,2.99,0,5.11-1.02,6.28-2.95h.08v2.27h5.98v-28h-6.28Zm-5.03,22.81c-3.03,0-5.26-2.23-5.26-5.41s2.35-5.26,5.3-5.26c3.1,0,5.33,2.35,5.33,5.26,0,3.1-2.31,5.41-5.37,5.41Z"/>
    <polyline class="cls-1" points="44.01 92.25 44.01 40 233.94 40 233.94 169.25 157.38 169.25"/>
    <line class="cls-1" x1="157.38" y1="155.12" x2="220.76" y2="155.12"/>
    <polyline class="cls-1" points="58.13 92.38 58.13 54.12 126.76 54.13"/>
    <polyline class="cls-1" points="157.38 132 191.13 132 191.13 93.75"/>
    <polyline class="cls-1" points="175.39 105.81 190.95 90.25 206.51 105.81"/>
</svg>