<svg id="Layer_1" data-name="Layer 1" xmlns="http://www.w3.org/2000/svg" viewBox="0 0 88.98 88.38"><defs><style>.cls-1{fill:none;stroke:#4a4a4a;stroke-miterlimit:10;}</style></defs><title>quick</title><circle class="cls-1" cx="70.74" cy="9.06" r="8.56"/><path class="cls-1" d="M100.41,29.5,88.83,41a6.84,6.84,0,0,1-9.61,0l-1.87-1.85L64.29,52.64l8.58,8.5a4.83,4.83,0,0,1,1.36,4.31L70,89.29s-.78,5.93-6,4.88-4.1-6-4.1-6l2.94-18.48a4.84,4.84,0,0,0-1.28-4.11l-9.15-9.63L41.74,67.4A4.87,4.87,0,0,1,38.17,69H19.09s-5.32.09-5.32-4.36c0-5.06,5.59-4.8,5.59-4.8H31.55a4.86,4.86,0,0,0,3.65-1.66L59.84,30H54a3.88,3.88,0,0,0-2.72,1.12L41.15,41.13s-3.14,3.07-5.8.26C33,39,36.11,36,36.11,36l13.54-12.9A3.87,3.87,0,0,1,52.31,22H68.48a4.32,4.32,0,0,1,2.89,1.11L82.53,33.22a3,3,0,0,0,4.13-.06l8.58-8.47s2.8-3.12,5.45-.32S100.41,29.5,100.41,29.5Z" transform="translate(-13.27 -6.41)"/><line class="cls-1" x1="14.93" y1="30.43" x2="0.15" y2="30.43"/><line class="cls-1" x1="9.58" y1="22.91" x2="0.15" y2="22.91"/><line class="cls-1" x1="26.25" y1="16.71" x2="10.74" y2="16.71"/></svg>