<svg id="Layer_1" data-name="Layer 1" xmlns="http://www.w3.org/2000/svg" viewBox="0 0 126.77 94.12"><defs><style>.cls-1{fill:none;stroke:#4a4a4a;stroke-miterlimit:10;}.cls-2{fill:#4a4a4a;}</style></defs><title>tutorials</title><path class="cls-1" d="M61,68s9.22,2.56,13.24,11.74c0,0,6.11-19.35,18.27-26.35A44.27,44.27,0,0,0,73,71.09,21.6,21.6,0,0,0,61,68Z" transform="translate(15.52 -5.81)"/><path class="cls-1" d="M16.74,76.78a35.31,35.31,0,1,1,10.34-.47v7.4a.8.8,0,0,1-1.32.62Z" transform="translate(15.52 -5.81)"/><path class="cls-2" d="M8.48,36.73a1.09,1.09,0,0,1-1.07-1.18c.67-8.15,5.72-12.2,13.27-12.2,6.14,0,12.19,3.62,12.19,10.95,0,3.1-1,5.63-5.07,8.63-3.39,2.51-3.94,3.35-4,6.28a1.08,1.08,0,0,1-1.08,1H17.1A1.08,1.08,0,0,1,16,49.17c0-5.11.62-6.73,5.94-10.94,1.75-1.4,2.32-2.53,2.32-4,0-2.12-1.19-3.82-4-3.82-2.57,0-4.4,1.62-4.66,5.37a1.07,1.07,0,0,1-1.07,1Zm5.69-1.14a.27.27,0,0,0,.26-.26,5.84,5.84,0,0,1,5.88-6.09c3.1,0,5.17,1.65,5.17,4.86,0,2.37-.72,3.46-4.18,6.25s-4,4.28-4.08,8.5a.28.28,0,0,0,.27.28h4.83a.27.27,0,0,0,.27-.27c.08-3.33.77-4,4.49-6.86,3.46-2.58,4.6-4.65,4.6-7.59,0-5.38-3.82-9.92-11.06-9.92s-11.34,4.06-12,10.8a.27.27,0,0,0,.27.3Zm2.67,17.2H23A1.08,1.08,0,0,1,24,53.87V60A1.07,1.07,0,0,1,23,61.06H16.84A1.07,1.07,0,0,1,15.77,60V53.87A1.08,1.08,0,0,1,16.84,52.79ZM17,54.2v5.46a.26.26,0,0,0,.26.26h5.36a.26.26,0,0,0,.26-.26V54.2a.27.27,0,0,0-.26-.27H17.22A.27.27,0,0,0,17,54.2Z" transform="translate(15.52 -5.81)"/><path class="cls-1" d="M38.65,75.25V85.74a6.83,6.83,0,0,0,6.83,6.84H60.66l8.6,6.67a.82.82,0,0,0,1.33-.65v-6h33.33a6.83,6.83,0,0,0,6.83-6.84V49a6.83,6.83,0,0,0-6.83-6.83H59.63" transform="translate(15.52 -5.81)"/></svg>