<svg width="24" height="24" viewBox="0 0 24 24" fill="none" xmlns="http://www.w3.org/2000/svg">
<path d="M9.75 5.25H2.25C1.85218 5.25 1.47064 5.40804 1.18934 5.68934C0.908035 5.97064 0.75 6.35218 0.75 6.75V20.25C0.75 20.6478 0.908035 21.0294 1.18934 21.3107C1.47064 21.592 1.85218 21.75 2.25 21.75H21.75C22.1478 21.75 22.5294 21.592 22.8107 21.3107C23.092 21.0294 23.25 20.6478 23.25 20.25V6.75C23.25 6.35218 23.092 5.97064 22.8107 5.68934C22.5294 5.40804 22.1478 5.25 21.75 5.25H14.25" stroke="black" stroke-width="1.5" stroke-linecap="round" stroke-linejoin="round"/>
<path d="M14.25 4.5C14.25 3.90326 14.0129 3.33097 13.591 2.90901C13.169 2.48705 12.5967 2.25 12 2.25C11.4033 2.25 10.831 2.48705 10.409 2.90901C9.98705 3.33097 9.75 3.90326 9.75 4.5V7.5C9.75 7.69891 9.82902 7.88968 9.96967 8.03033C10.1103 8.17098 10.3011 8.25 10.5 8.25H13.5C13.6989 8.25 13.8897 8.17098 14.0303 8.03033C14.171 7.88968 14.25 7.69891 14.25 7.5V4.5Z" stroke="black" stroke-width="1.5" stroke-linecap="round" stroke-linejoin="round"/>
<path d="M8.25 16.5C9.69975 16.5 10.875 15.3247 10.875 13.875C10.875 12.4253 9.69975 11.25 8.25 11.25C6.80025 11.25 5.625 12.4253 5.625 13.875C5.625 15.3247 6.80025 16.5 8.25 16.5Z" stroke="black" stroke-width="1.5" stroke-linecap="round" stroke-linejoin="round"/>
<path d="M3.75 21.75C3.75 20.5565 4.22411 19.4119 5.06802 18.568C5.91193 17.7241 7.05653 17.25 8.25 17.25C9.44347 17.25 10.5881 17.7241 11.432 18.568C12.2759 19.4119 12.75 20.5565 12.75 21.75H3.75Z" stroke="black" stroke-width="1.5" stroke-linecap="round" stroke-linejoin="round"/>
<path d="M14.25 12.75H18.75" stroke="black" stroke-width="1.5" stroke-linecap="round" stroke-linejoin="round"/>
<path d="M14.25 15.75H20.25" stroke="black" stroke-width="1.5" stroke-linecap="round" stroke-linejoin="round"/>
</svg>
