<?xml version="1.0" encoding="UTF-8"?>
<svg xmlns="http://www.w3.org/2000/svg" viewBox="0 0 1990 726.2">
  <g>
    <path fill="#003944" stroke-width="0" d="M721.3,397.3c2.6,18,17.7,30,37.1,30,12.9,0,21.1-4.9,28.9-14.9h48.6c-15.1,34.6-44,54.9-77.4,54.9-45.7,0-84-36.9-84-84s36.6-85.2,83.2-85.2,83.7,37.4,83.7,86.6c0,4.6-.3,8.3-1.1,12.6h-119ZM793.9,365.3c-3.7-16.3-18-27.1-36.3-27.1-17.1,0-32,10.3-35.7,27.1h72Z"/>
    <path fill="#003944" stroke-width="0" d="M943.3,462.2l-31.7-49.2-32.3,49.1h-57.1l60.3-84.9-53.5-73.6h56.9l25.7,41.7,25.4-41.7h56.3l-53.4,73.7,61.4,84.9h-58Z"/>
    <path fill="#003944" stroke-width="0" d="M1001.3,462.2v-211.5h47.4v65.4c12.6-13.4,28.6-18,45.1-18,41.1,0,78.9,30.9,78.9,83.7,0,48.9-31.1,85.7-80,85.7-19.1,0-38.3-8.9-45.4-22.3h-.6v16.9h-45.4v.1ZM1125.3,382.7c0-21.1-16.3-40.3-39.1-40.3s-39.1,18-39.1,40c0,23.4,16.6,40.9,38.6,40.9,22.2,0,39.6-17.7,39.6-40.6Z"/>
    <path fill="#003944" stroke-width="0" d="M1258.2,467c-48.3,0-85.4-35.7-85.4-84.3s38-84.3,85.4-84.3,85.4,35.7,85.4,83.7c.1,49.8-37.7,84.9-85.4,84.9ZM1296.2,382.7c0-21.1-16-40-38.3-40-20.9,0-37.7,18.3-37.7,40s16.6,40,38,40,38-18.8,38-40Z"/>
    <path fill="#003944" stroke-width="0" d="M1470.2,462.2v-17.2h-.6c-6.9,14-25.7,22.6-46.6,22.6-46.9,0-79.4-36.9-79.4-84.9s34-84.6,79.4-84.6c19.4,0,37.4,7.7,46.6,22.3h.6v-16.9h47.4v158.6h-47.4v.1ZM1470.2,382.7c0-22.3-18-40.3-40.3-40.3s-38.9,18-38.9,40.9,17.4,40,39.4,40c22.4,0,39.8-17.7,39.8-40.6Z"/>
    <g>
      <path fill="#46bdaf" stroke-width="0" d="M415.9,342.4c-21.7,0-38.9,18-38.9,40.9s17.4,40,39.4,40,39.8-17.7,39.8-40.6-18-40.3-40.3-40.3Z"/>
      <path fill="#46bdaf" stroke-width="0" d="M364.1,211.4c-83.8,0-151.8,68-151.8,151.8s68,151.8,151.8,151.8h151.8v-151.8c0-83.8-68-151.8-151.8-151.8ZM503.6,462.1h-47.4v-17.1h-.6c-6.9,14-25.7,22.6-46.6,22.6-46.9,0-79.4-36.9-79.4-84.9s34-84.6,79.4-84.6c19.4,0,37.4,7.7,46.6,22.3h.6v-16.9h47.4v158.6Z"/>
    </g>
    <path fill="#003944" stroke-width="0" d="M1528.5,462.2v-158.6h44.6v16.9h.6c8.3-16.9,21.4-22.3,39.7-22.3v47.7c-28.3.3-37.4,10.9-37.4,28.9v87.4h-47.5Z"/>
    <path fill="#003944" stroke-width="0" d="M1733.4,462.2v-17.2h-.6c-8.9,14.6-24.9,22.3-47.4,22.3-48,0-79.4-36.9-79.4-84.9s32.3-84.3,78.6-84.3c18.3,0,33.1,5.4,46.6,18.9v-66.3h47.4v211.5h-45.2ZM1733.7,382.1c0-22-16.9-39.7-40.3-39.7s-40,16.6-40,39.7,16.9,40.9,39.7,40.9,40.6-17.4,40.6-40.9Z"/>
    <path fill="#003944" stroke-width="0" d="M549.1,303.6v16.9h.6c7.1-13.4,26.3-22.3,45.4-22.3,48.9,0,80,36.9,80,85.7,0,52.9-37.7,83.7-78.9,83.7-16.6,0-32.6-4.6-45.1-18v65.4h-47.4v-211.4h45.4ZM586.9,342.4c-22,0-38.6,17.4-38.6,40.9,0,22,17.1,40,39.1,40s39.1-19.1,39.1-40.3c.1-22.9-17.4-40.6-39.6-40.6Z"/>
  </g>
</svg>
