<svg width="24" height="24" viewBox="0 0 24 24" fill="none" xmlns="http://www.w3.org/2000/svg">
<path fill-rule="evenodd" clip-rule="evenodd" d="M3.68629 1.69119C3.81037 1.57201 3.98487 1.5 4.17285 1.5H13.3828V6.21667C13.3828 6.78802 13.6194 7.32954 14.03 7.72395C14.4396 8.11737 14.9889 8.33333 15.5557 8.33333H20.4971V21.75C20.4971 22.1451 20.1622 22.5 19.7057 22.5H4.17285C3.98448 22.5 3.81009 22.428 3.68629 22.3091C3.66279 22.2865 3.61063 22.216 3.56434 22.0868C3.51979 21.9625 3.5 21.837 3.5 21.75V2.11667C3.5 1.96309 3.56324 1.80938 3.68629 1.69119ZM4.17285 0H14.2552C14.8216 0.000116169 15.3706 0.215894 15.7801 0.608909L21.3502 5.95912C21.7604 6.35338 21.997 6.89469 21.9971 7.46563V21.75C21.9971 23.0118 20.9518 24 19.7057 24H4.17285C3.60651 24 3.05708 23.7846 2.6472 23.3909C2.40387 23.1572 2.24765 22.859 2.15227 22.5928C2.05517 22.3218 2 22.0254 2 21.75V2.11667C2 1.54532 2.23658 1.00379 2.6472 0.609385C3.0568 0.215965 3.60611 0 4.17285 0ZM14.8828 6.21667V1.82698L20.095 6.83333H15.5557C15.3677 6.83333 15.1932 6.76132 15.0691 6.64214C14.9461 6.52395 14.8828 6.37024 14.8828 6.21667ZM7.25 18C6.83579 18 6.5 18.3358 6.5 18.75C6.5 19.1642 6.83579 19.5 7.25 19.5H16.75C17.1642 19.5 17.5 19.1642 17.5 18.75C17.5 18.3358 17.1642 18 16.75 18H7.25Z" fill="black"/>
<path fill-rule="evenodd" clip-rule="evenodd" d="M6.5 14.25C6.5 13.8358 6.83579 13.5 7.25 13.5H16.75C17.1642 13.5 17.5 13.8358 17.5 14.25C17.5 14.6642 17.1642 15 16.75 15H7.25C6.83579 15 6.5 14.6642 6.5 14.25Z" fill="black"/>
<path fill-rule="evenodd" clip-rule="evenodd" d="M6.5 9.75C6.5 9.33579 6.83579 9 7.25 9H12.25C12.6642 9 13 9.33579 13 9.75C13 10.1642 12.6642 10.5 12.25 10.5H7.25C6.83579 10.5 6.5 10.1642 6.5 9.75Z" fill="black"/>
</svg>
