<svg width="24" height="24" viewBox="0 0 24 24" fill="none" stroke="currentColor" xmlns="http://www.w3.org/2000/svg">
    <path d="M0.75 5.251C0.75 6.44447 1.93526 7.58907 4.04505 8.43298C6.15483 9.27689 9.01631 9.751 12 9.751C14.9837 9.751 17.8452 9.27689 19.955 8.43298C22.0647 7.58907 23.25 6.44447 23.25 5.251M0.75 5.251C0.75 4.05753 1.93526 2.91293 4.04505 2.06902C6.15483 1.22511 9.01631 0.750999 12 0.750999C14.9837 0.750999 17.8452 1.22511 19.955 2.06902C22.0647 2.91293 23.25 4.05753 23.25 5.251M0.75 5.251V12M23.25 5.251V12M0.75 12C0.75 14.485 5.787 16.5 12 16.5C18.213 16.5 23.25 14.486 23.25 12M0.75 12V18.75C0.75 21.235 5.787 23.25 12 23.25C18.213 23.25 23.25 21.235 23.25 18.75V12" stroke="currentColor" stroke-width="1.5" stroke-linecap="round" stroke-linejoin="round"/>
</svg>
