<svg width="24" height="24" viewBox="0 0 24 24" fill="none" xmlns="http://www.w3.org/2000/svg">
<path d="M10.3388 15.9057C11.8835 17.0754 13.9842 16.8291 15.467 15.3517C16.4556 14.3667 16.7027 13.3818 16.5173 12.0274L20.2245 8.33384C21.7073 12.089 21.0277 15.8442 18.4945 18.3681C15.0345 21.8155 9.28848 21.9386 5.70493 18.3681C2.24496 14.9208 1.99782 9.13412 5.58136 5.6252C9.16491 2.05473 14.7874 2.11629 18.5563 5.87144C18.927 6.2408 19.1741 6.5486 19.4213 6.91796L10.3388 15.9057ZM13.4281 7.96448C11.8835 7.04108 9.96811 7.28732 8.60884 8.64164C7.31135 9.9344 6.94064 11.8428 7.9292 13.3818L13.4281 7.96448Z" fill="black"/>
</svg>
