<svg width="24" height="24" viewBox="0 0 24 24" fill="none" xmlns="http://www.w3.org/2000/svg">
<path d="M11.5528 13.464L10.8775 13.7902L10.8775 13.7902L11.5528 13.464ZM10.6753 9.92373C10.4951 9.55077 10.0467 9.39449 9.67373 9.57469C9.30077 9.75488 9.14449 10.2033 9.32469 10.5763L10.6753 9.92373ZM14.6753 10.5763C14.8555 10.2033 14.6992 9.75488 14.3263 9.57469C13.9533 9.39449 13.5049 9.55077 13.3247 9.92373L14.6753 10.5763ZM12.4472 13.464L11.7719 13.1377L11.7719 13.1377L12.4472 13.464ZM2.25 1.5H21.75V0H2.25V1.5ZM22.5 2.25V5.25H24V2.25H22.5ZM21.75 6H2.25V7.5H21.75V6ZM1.5 5.25V2.25H0V5.25H1.5ZM2.25 6C1.83579 6 1.5 5.66421 1.5 5.25H0C0 6.49264 1.00736 7.5 2.25 7.5V6ZM22.5 5.25C22.5 5.66421 22.1642 6 21.75 6V7.5C22.9926 7.5 24 6.49264 24 5.25H22.5ZM21.75 1.5C22.1642 1.5 22.5 1.83579 22.5 2.25H24C24 1.00736 22.9926 0 21.75 0V1.5ZM2.25 0C1.00736 0 0 1.00736 0 2.25H1.5C1.5 1.83579 1.83579 1.5 2.25 1.5V0ZM17 0.75V6.75H18.5V0.75H17ZM2.25 18H21.75V16.5H2.25V18ZM22.5 18.75V21.75H24V18.75H22.5ZM21.75 22.5H2.25V24H21.75V22.5ZM1.5 21.75V18.75H0V21.75H1.5ZM2.25 22.5C1.83579 22.5 1.5 22.1642 1.5 21.75H0C0 22.9926 1.00736 24 2.25 24V22.5ZM22.5 21.75C22.5 22.1642 22.1642 22.5 21.75 22.5V24C22.9926 24 24 22.9926 24 21.75H22.5ZM21.75 18C22.1642 18 22.5 18.3358 22.5 18.75H24C24 17.5074 22.9926 16.5 21.75 16.5V18ZM2.25 16.5C1.00736 16.5 0 17.5074 0 18.75H1.5C1.5 18.3358 1.83579 18 2.25 18V16.5ZM17 17.25V23.25H18.5V17.25H17ZM12.2281 13.1377L10.6753 9.92373L9.32469 10.5763L10.8775 13.7902L12.2281 13.1377ZM13.3247 9.92373L11.7719 13.1377L13.1225 13.7902L14.6753 10.5763L13.3247 9.92373ZM10.8775 13.7902C11.3347 14.7366 12.6653 14.7366 13.1225 13.7902L11.7719 13.1377C11.8112 13.0563 11.9044 13 12 13C12.0956 13 12.1888 13.0563 12.2281 13.1377L10.8775 13.7902Z" fill="black"/>
</svg>
