<?xml version="1.0" encoding="UTF-8"?><svg id="Layer_1" xmlns="http://www.w3.org/2000/svg" viewBox="0 0 1075 1075"><polygon points="751.85 457.21 752.53 457.21 805.67 547.59 869.31 547.59 800.6 442.32 871.34 359.72 804.66 359.72 752.53 427.76 751.85 427.76 751.85 297.1 695.66 297.1 695.66 547.59 751.85 547.59 751.85 457.21"/><path d="m680.54,771.47v-187.86h-56.19v19.97h-.68c-10.83-17.26-32.16-26.4-55.18-26.4-42.07,0-75.86,27.3-88.61,65.73-13.73-39.04-50.93-65.39-95.53-65.39s-79.54,24.47-94.24,62.11c-13.63-39.94-49.36-62.44-87.6-62.44-19.63,0-38.59,5.42-53.48,21.32v-67.83c15.23,16.59,34.53,23.36,56.53,23.36,42.03,0,74.16-27.46,86.21-64.97,14.22,38.12,51.07,64.63,93.26,64.63,39.6,0,73.79-24.03,91.73-64.99h-57.54c-9.14,11.85-18.96,17.6-34.19,17.6-23.02,0-40.96-14.22-44-35.54h134.62c6.98,48.2,43.11,83.27,92.85,83.27,24.71,0,47.05-10.16,55.17-26.74h.68v20.31h56.19v-187.86h-56.19v19.97h-.68c-10.83-17.26-32.16-26.4-55.17-26.4-43.71,0-78.49,29.48-90.02,70.29-12.59-41.56-49.24-70.29-94.47-70.29-42.82,0-78.5,28.15-92.33,66.07-12.16-39.49-44.41-66.07-86.13-66.07-23.36,0-44,8.46-58.9,27.08h-1.02v-20.65h-52.8v411.74h53.82v-19.97h.68c8.46,15.91,31.14,26.4,53.82,26.4,44.18,0,76.11-25.45,88.76-63.23,14.43,37.61,50.53,62.55,94.44,62.55s81.34-25.59,95.27-65.02c12.31,38.92,45.4,65.7,88.87,65.7,24.71,0,47.05-10.15,55.18-26.74h.68v20.31h56.19Zm-103.92-365.71c26.4,0,47.73,21.32,47.73,47.73s-20.65,48.07-47.05,48.07-46.71-21.33-46.71-47.39,20.31-48.4,46.04-48.4Zm-192.6-5.08c21.66,0,38.59,12.86,42.99,32.16h-85.3c4.4-19.97,22-32.16,42.31-32.16Zm-190.64,5.08c27.08,0,47.39,21.66,47.39,48.07s-20.31,47.73-47.05,47.73-47.05-21.33-47.05-47.73,20.99-48.07,46.71-48.07Zm-.68,319.67c-26.06,0-45.7-20.65-45.7-48.4,0-26.06,20.31-47.39,46.37-47.39s46.37,22.68,46.37,47.73c0,27.08-20.65,48.07-47.05,48.07Zm191.66-.68c-25.39,0-45.02-21.66-45.02-47.39s19.97-47.39,44.68-47.39c26.4,0,45.36,22.34,45.36,47.39s-18.62,47.39-45.02,47.39Zm192.94.68c-26.07,0-46.71-21.32-46.71-47.39s20.31-48.4,46.04-48.4,47.73,21.33,47.73,47.73-20.65,48.07-47.05,48.07Z"/><path d="m925.43,520.98v78.53c-15.91-15.91-33.51-22.34-55.17-22.34-31.57,0-57.62,14.49-74.06,37.49v-37.49c-21.66,0-37.23,6.43-47.05,26.4h-.68v-19.97h-52.8v187.86h56.19v-103.58c0-18.83,8.46-30.79,33.5-33.57-5.3,12.87-8.18,27.31-8.18,42.71,0,56.87,37.24,100.53,94.1,100.53,26.74,0,45.7-9.14,56.19-26.4h.68v20.31h53.48v-250.48h-56.19Zm-45.02,204.11c-27.08,0-47.05-19.97-47.05-48.4s20.99-47.05,47.39-47.05c27.76,0,47.73,20.99,47.73,47.05,0,27.75-20.65,48.4-48.07,48.4Z"/></svg>