<?xml version="1.0" encoding="utf-8"?>
<!-- Generator: Adobe Illustrator 22.0.1, SVG Export Plug-In . SVG Version: 6.00 Build 0)  -->
<svg version="1.1" id="Layer_1" xmlns="http://www.w3.org/2000/svg" xmlns:xlink="http://www.w3.org/1999/xlink" x="0px" y="0px"
	 viewBox="0 0 113.8 60" style="enable-background:new 0 0 113.8 60;" xml:space="preserve">
<style type="text/css">
	.st0{fill:#0F0F0F;}
</style>
<path id="Logo" class="st0" d="M77.5,31.4V0h7v16.4l6.6-8.5h8.4l-8.9,10.3l8.6,13.2h-8l-6.7-11.3l-0.1,11.3H77.5L77.5,31.4z
	 M6.8,47.4c0,3.3,2.2,6.1,5.7,6.1c3.6,0,5.9-2.9,5.9-6c0-3.1-2.3-6-5.8-6C8.9,41.4,6.8,44.4,6.8,47.4L6.8,47.4z M31.7,47.4
	c0,3.4,2.6,5.9,5.6,5.9c3.1,0,5.6-2.5,5.6-5.9c0-3.4-2.6-5.9-5.6-5.9C34.3,41.5,31.7,44,31.7,47.4L31.7,47.4z M56.2,47.5
	c0,2.2,1.6,5.9,5.9,5.9c4.4,0,5.9-3.7,5.9-6c0-2.8-1.9-6-5.9-6C58,41.4,56.2,44.8,56.2,47.5L56.2,47.5z M12.6,25.6
	c3.7,0,5.9-3,5.9-6c0-2.8-2-6-5.9-6c-3.9,0-5.9,3.2-5.9,6C6.7,22.6,8.9,25.6,12.6,25.6L12.6,25.6z M31.7,17h10.7
	c-0.3-1.4-1.7-4-5.3-4C33.4,13,32,15.6,31.7,17L31.7,17z M75,7.8v23.5h-7v-2.5c-1.3,2.3-4.2,3.3-7,3.3c-6.7,0-10.8-4.6-11.7-10.4
	H31.6c0.4,2.8,2.8,4.5,5.5,4.5c2.2,0,3.3-1,4.3-2.2h7.2c-1.1,2.6-2.8,4.7-4.8,6c-1.9,1.4-4.3,2.1-6.7,2.1c-5.5,0-10.4-3.7-11.9-8.9
	c-1.3,5.1-5.5,8.9-11,8.9c-4.2,0-6.2-2-7.1-2.9v8.3c2.5-2.7,5.9-2.7,6.8-2.7c4.3,0,9.8,2.6,11.2,9.1c1.3-4.7,5.3-9.1,12.2-9.1
	c7,0,11,4.5,12.3,9.3c1.3-5.8,6.1-9.3,11.5-9.3c3.9,0,6,1.9,6.9,3.3l0.1-2.5h7v23.5h-7v-2.5c-1.3,2.3-4.2,3.4-7,3.4
	c-6.2,0-10.3-4.1-11.5-9.3c-1.2,4.8-5.3,9.3-12.3,9.3c-6.9,0-11-4.4-12.2-9.2c-1.4,6.2-6.4,9.3-11.5,9.3c-3.3,0-5.9-1.6-6.7-3.3
	l-0.1,2.5H0V7.8h6.6v2.6C8.1,8.7,10.5,7,14.1,7c6.6,0,9.9,4.5,11,9.1C26.6,11.1,31.1,7,37,7c6.6,0,11.5,4.8,12.3,11.1
	C49.9,11.3,55.2,7,61,7c3.9,0,6,1.9,6.9,3.3L68,7.8H75L75,7.8z M56.2,19.7c0,2.2,1.6,5.9,5.9,5.9c4.4,0,5.9-3.7,5.9-6
	c0-2.8-1.9-6-5.9-6C58,13.6,56.2,17,56.2,19.7L56.2,19.7z M113.8,27.8v31.4h-6.7v-2.5c-0.7,1-2.4,3.3-7.1,3.3
	c-7.1,0-11.8-5.5-11.8-12.6c0-2,0.4-3.8,1-5.4c-2.8,0.2-4.6,1.1-4.6,4.3v12.9h-7V35.7h6.6v2.5c0.7-1.1,1.9-3.3,6-3.3v5.3
	c2.2-3.5,5.9-5.3,9.7-5.3c4.2,0,6.1,2,6.9,2.8v-9.8H113.8L113.8,27.8z M95.2,47.3c0,3.6,2.6,6.1,5.9,6.1c4.4,0,6-3.6,6-6.1
	c0-2.8-2-5.9-5.9-5.9C97.1,41.4,95.2,44.6,95.2,47.3L95.2,47.3z"/>
</svg>
